<?xml version="1.0" encoding="UTF-8"?>
<svg id="Camada_1" data-name="Camada 1" xmlns="http://www.w3.org/2000/svg" xmlns:xlink="http://www.w3.org/1999/xlink" viewBox="0 0 609.7 211.4">
  <defs>
    <style>
      .cls-1, .cls-2 {
        fill: #fff;
      }

      .cls-2 {
        fill-rule: evenodd;
      }
    </style>
    <symbol id="MPAC-H" viewBox="0 0 235.99 63.96">
      <g>
        <path class="cls-1" d="M8.94.26v11.86L5.89.26h-1.36L1.61,12.12V.26H.25v12.58h2.35L5.23,2.11l2.76,10.73h2.32V.26s-1.37,0-1.37,0ZM12.42,12.85h1.35v-1.71h-1.35v1.71ZM12.42,9.67h1.35V.27h-1.35v9.4ZM15.75.26v9.4h1.23v-1.17c.23.46.54.8.93,1.03s.86.34,1.42.34c.82,0,1.41-.21,1.76-.63s.53-1.14.53-2.16V.26h-1.32v6.91c0,.51-.11.89-.32,1.14-.22.25-.55.38-.99.38-.59,0-1.05-.18-1.39-.56-.34-.37-.52-.87-.52-1.5V.26s-1.33,0-1.33,0ZM23.56,12.85h1.35v-1.71h-1.35v1.71ZM23.56,9.67h1.35V.27h-1.35v9.4ZM26.64,3.09h1.3v-.05c-.02-.12-.03-.21-.03-.27,0-.51.14-.9.44-1.17.29-.27.71-.4,1.26-.4.5,0,.9.14,1.19.41s.44.64.44,1.11c0,.74-.57,1.31-1.7,1.7h-.03c-1.14.4-1.87.8-2.21,1.19-.34.39-.51.96-.51,1.71,0,.82.24,1.46.72,1.92s1.15.69,2,.69c.91,0,1.6-.22,2.06-.66.46-.44.69-1.09.69-1.95v-.13h-1.24c-.03.57-.16.98-.38,1.24-.23.26-.58.39-1.06.39-.51,0-.89-.12-1.15-.36s-.39-.61-.39-1.08c0-.21.03-.4.1-.57s.17-.3.3-.41c.24-.21.71-.43,1.42-.65.38-.12.67-.22.88-.3.64-.25,1.1-.57,1.38-.95.27-.38.41-.89.41-1.53,0-.94-.27-1.67-.81-2.18-.54-.51-1.31-.77-2.31-.77-.91,0-1.61.24-2.08.73s-.7,1.21-.7,2.16v.19h.01ZM35.78,2.21c0-.39.07-.65.21-.77s.48-.18,1.01-.18h.29V.12c-.07,0-.18,0-.32-.02-.34-.02-.55-.03-.64-.03-.62,0-1.08.12-1.38.37s-.45.62-.45,1.12v7.01h-1.3v1.09h1.3v2.51h1.28v-2.51h1.52v-1.09h-1.52V2.2h0ZM39.46,5.98h3.18v.25c0,.86-.12,1.52-.38,1.96-.25.44-.63.66-1.13.66-.56,0-.98-.23-1.26-.71-.28-.47-.41-1.19-.41-2.16M42.66,3.44h1.28c0-1.11-.26-1.96-.76-2.55-.49-.59-1.2-.88-2.12-.88-1.01,0-1.75.4-2.23,1.19-.48.79-.72,2.01-.72,3.67,0,1.75.24,3.04.72,3.85.48.81,1.23,1.22,2.26,1.22.97,0,1.69-.35,2.17-1.04.48-.69.71-1.75.71-3.16v-.82h-4.5v-.42c0-1.18.14-2.04.41-2.57.27-.54.7-.81,1.29-.81.46,0,.82.2,1.09.61s.4.96.4,1.66v.06h0ZM40.28,10.67l1.38,2.22h1.45l-2.01-2.22h-.82ZM45.71.26v9.4h1.21v-1.54c.19.55.47.98.86,1.29.38.31.82.47,1.31.47h.34c.08,0,.16,0,.22-.03v-1.41c-.07.04-.15.07-.23.09-.09.02-.18.03-.28.03-.67,0-1.19-.22-1.57-.67-.37-.45-.56-1.07-.56-1.87V.26s-1.3,0-1.3,0ZM50.54,12.85h1.35v-1.71h-1.35v1.71ZM50.54,9.67h1.35V.27h-1.35v9.4ZM53.6,4.96c0,1.69.27,2.94.81,3.75s1.37,1.22,2.48,1.22,1.96-.4,2.49-1.21c.54-.81.8-2.06.8-3.76s-.27-2.96-.8-3.76S58.02,0,56.89,0s-1.97.4-2.5,1.19c-.52.79-.79,2.05-.79,3.76M55,4.96c0-1.41.14-2.4.43-2.97s.77-.86,1.45-.86,1.15.29,1.44.88c.29.59.44,1.57.44,2.95s-.14,2.38-.44,2.96c-.29.57-.77.86-1.44.86s-1.16-.28-1.45-.85-.44-1.56-.44-2.96M67.56,6.83h1.84c.85,0,1.47.2,1.87.61s.6,1.05.6,1.92c0,.8-.2,1.38-.6,1.74s-1.05.54-1.95.54h-1.75v-4.8h-.01ZM66.17.26v12.58h3.21c1.37,0,2.36-.28,2.99-.84s.94-1.45.94-2.67-.33-2.19-.98-2.82c-.66-.64-1.62-.96-2.89-.96h-1.87V.26s-1.4,0-1.4,0ZM79.42.26v1.22c-.18-.47-.48-.84-.88-1.09-.4-.26-.89-.38-1.45-.38-.78,0-1.35.19-1.71.58s-.54,1-.54,1.85v7.23h1.37V2.41c0-.39.1-.69.29-.9.19-.21.46-.32.81-.32.63,0,1.12.19,1.47.59.35.39.53.94.53,1.65v6.24h1.33V.27h-1.22ZM76.76,10.67l1.38,2.22h1.45l-2.01-2.22s-.82,0-.82,0ZM83.93,5.04c0-1.36.14-2.33.43-2.91.29-.58.75-.87,1.41-.87.61,0,1.05.3,1.32.91.27.6.41,1.59.41,2.97,0,1.23-.14,2.13-.44,2.71-.29.58-.74.87-1.34.87-.64,0-1.1-.27-1.38-.82-.27-.54-.41-1.5-.41-2.86M82.72.26v12.58h1.3v-4.15c.11.35.36.64.73.86s.81.33,1.3.33c.91,0,1.62-.4,2.12-1.21.5-.81.76-1.94.76-3.41,0-1.69-.25-2.98-.75-3.86s-1.23-1.32-2.2-1.32c-.5,0-.93.12-1.31.38-.37.25-.62.58-.74,1V.27h-1.21ZM90.66,12.85h1.3V.27h-1.3v12.58ZM93.92,12.85h1.35v-1.71h-1.35v1.71ZM93.92,9.67h1.35V.27h-1.35v9.4ZM101.78,3.57h1.28c0-1.13-.26-2.01-.78-2.63-.52-.62-1.25-.93-2.2-.93-1.04,0-1.81.41-2.31,1.23s-.75,2.09-.75,3.79.26,2.86.78,3.67,1.31,1.21,2.37,1.21c.87,0,1.56-.27,2.07-.81.51-.53.76-1.27.76-2.19v-.2h-1.28c-.03.66-.17,1.16-.42,1.5-.26.34-.62.52-1.08.52-.64,0-1.1-.28-1.37-.85-.27-.57-.41-1.54-.41-2.91s.14-2.36.41-2.94c.28-.57.74-.86,1.38-.86.49,0,.87.2,1.13.61.26.41.41,1,.42,1.77M104.65,4.96c0,1.69.27,2.94.81,3.75s1.37,1.22,2.48,1.22,1.96-.4,2.49-1.21c.54-.81.8-2.06.8-3.76s-.27-2.96-.8-3.76C109.9.4,109.07,0,107.94,0s-1.97.4-2.5,1.19c-.53.79-.79,2.05-.79,3.76M106.04,4.96c0-1.41.14-2.4.43-2.97s.77-.86,1.45-.86,1.15.29,1.44.88.44,1.57.44,2.95-.14,2.38-.44,2.96c-.29.57-.77.86-1.44.86s-1.16-.28-1.45-.85c-.29-.57-.44-1.56-.44-2.96M121.83,5.04c0,1.37-.13,2.33-.4,2.87-.27.54-.72.81-1.37.81s-1.07-.29-1.36-.87-.44-1.48-.44-2.7c0-1.36.14-2.35.42-2.96s.72-.92,1.33-.92c.65,0,1.11.29,1.4.86.28.58.42,1.55.42,2.92M123.06.26h-1.23v1.19c-.12-.41-.36-.74-.73-1-.37-.25-.8-.38-1.3-.38-.97,0-1.7.44-2.21,1.33-.51.88-.76,2.17-.76,3.86,0,1.46.26,2.6.76,3.41.51.81,1.22,1.21,2.13,1.21.49,0,.93-.11,1.3-.33s.61-.51.71-.86v4.15h1.32V.26s.01,0,.01,0ZM124.78,5.14c0,1.75.28,3.05.84,3.89s1.42,1.27,2.57,1.27,2.03-.42,2.58-1.25c.55-.84.83-2.14.83-3.9s-.28-3.07-.83-3.89c-.55-.83-1.41-1.24-2.59-1.24s-2.04.41-2.59,1.23c-.54.82-.82,2.12-.82,3.9M126.23,5.13c0-1.46.15-2.48.45-3.08.3-.6.8-.89,1.51-.89s1.2.3,1.5.91.45,1.63.45,3.06-.15,2.47-.45,3.07-.8.89-1.5.89-1.2-.29-1.5-.88-.45-1.62-.45-3.07M137.81.26v13.05h6.44v-1.36h-5.01v-4.19h4.68v-1.32h-4.68V1.64h5.06V.27h-6.49ZM145.89,3.2h1.35v-.05c-.02-.12-.03-.22-.03-.28,0-.53.15-.94.45-1.21.3-.28.74-.42,1.31-.42.52,0,.93.14,1.23.43.3.28.45.66.45,1.15,0,.77-.59,1.36-1.76,1.76h-.03c-1.18.42-1.94.83-2.29,1.24-.35.41-.52,1-.52,1.77,0,.85.25,1.52.74,1.99.5.48,1.19.71,2.08.71.94,0,1.65-.23,2.13-.68.48-.46.72-1.13.72-2.02v-.14h-1.29c-.03.59-.16,1.02-.4,1.28-.24.27-.6.4-1.1.4-.53,0-.93-.12-1.19-.38-.27-.25-.4-.63-.4-1.12,0-.22.04-.42.11-.59s.17-.32.31-.42c.25-.21.74-.44,1.47-.68.39-.12.7-.23.91-.31.67-.26,1.14-.59,1.43-.99.28-.4.43-.92.43-1.58,0-.98-.28-1.73-.84-2.26s-1.35-.79-2.39-.79c-.95,0-1.66.25-2.15.76-.49.51-.73,1.25-.73,2.24v.2h0ZM155.36,2.28c0-.41.07-.67.22-.8s.49-.19,1.05-.19h.3V.11c-.08,0-.19,0-.33-.02-.35-.02-.57-.03-.67-.03-.64,0-1.12.13-1.43.38-.31.26-.47.65-.47,1.16v7.27h-1.35v1.13h1.35v2.6h1.32v-2.6h1.58v-1.13h-1.58V2.27h0ZM162.22,5.52c-.21-.24-.68-.49-1.42-.75-.06-.02-.11-.04-.14-.05-.63-.22-1.04-.47-1.23-.75s-.29-.68-.29-1.23c0-.49.11-.86.32-1.13s.52-.4.9-.4c.56,0,1.01.21,1.34.64s.5,1,.5,1.73v1.93h.02,0ZM164.36.25c-.17-.03-.32-.05-.44-.06-.13,0-.24-.02-.35-.02-.38,0-.68.12-.9.36s-.34.59-.35,1.03c-.21-.5-.51-.88-.9-1.14-.39-.27-.86-.4-1.4-.4-.7,0-1.25.24-1.64.71-.39.47-.59,1.14-.59,2s.18,1.48.54,1.92,1.14.86,2.35,1.27h.03c.99.34,1.48.73,1.48,1.18v.9c0,.4-.11.69-.34.88-.23.18-.59.28-1.09.28s-.84-.13-1.08-.38-.35-.64-.35-1.17v-.17h-1.27c.02.99.25,1.72.71,2.18s1.17.68,2.16.68c.92,0,1.59-.21,2.02-.63.42-.42.64-1.09.64-2V1.97c0-.25.05-.44.14-.55s.24-.16.44-.16c.04,0,.1,0,.18.03h.03V.25s-.02,0-.02,0ZM170.66,5.21c0,1.42-.14,2.41-.42,2.97s-.75.84-1.42.84-1.1-.3-1.41-.91c-.3-.6-.46-1.54-.46-2.8,0-1.41.14-2.43.43-3.07.29-.63.75-.95,1.38-.95.67,0,1.15.3,1.45.9.29.6.44,1.61.44,3.02M171.93.26h-1.27v1.23c-.12-.43-.38-.77-.76-1.03-.38-.26-.83-.39-1.35-.39-1,0-1.76.46-2.29,1.38-.53.92-.79,2.25-.79,4,0,1.52.26,2.7.79,3.54s1.27,1.26,2.21,1.26c.51,0,.96-.12,1.35-.35s.64-.53.74-.89v4.31h1.37V.27h0ZM173.69,5.14c0,1.75.28,3.05.84,3.89s1.42,1.27,2.57,1.27,2.03-.42,2.58-1.25c.56-.84.83-2.14.83-3.9s-.28-3.07-.82-3.89c-.55-.83-1.41-1.24-2.59-1.24s-2.04.41-2.59,1.23c-.54.82-.82,2.12-.82,3.9M175.14,5.13c0-1.46.15-2.48.45-3.08s.8-.89,1.51-.89,1.2.3,1.5.91.45,1.63.45,3.06-.15,2.47-.45,3.07-.8.89-1.5.89-1.2-.29-1.5-.88-.45-1.62-.45-3.07M191.51,5.21c0,1.42-.14,2.41-.42,2.97s-.75.84-1.42.84-1.1-.3-1.41-.91c-.3-.6-.45-1.54-.45-2.8,0-1.41.14-2.43.43-3.07.29-.63.75-.95,1.38-.95.67,0,1.15.3,1.45.9.29.6.44,1.61.44,3.02M192.78.26h-1.27v1.23c-.12-.43-.38-.77-.76-1.03-.38-.26-.83-.39-1.35-.39-1,0-1.76.46-2.29,1.38-.53.92-.79,2.25-.79,4,0,1.52.26,2.7.79,3.54s1.27,1.26,2.21,1.26c.51,0,.96-.12,1.35-.35s.64-.53.74-.89v4.31h1.37V.27h0ZM194.54,5.14c0,1.75.28,3.05.84,3.89s1.42,1.27,2.57,1.27,2.03-.42,2.58-1.25c.56-.84.83-2.14.83-3.9s-.28-3.07-.83-3.89c-.55-.83-1.41-1.24-2.59-1.24s-2.04.41-2.59,1.23c-.54.82-.82,2.12-.82,3.9M195.99,5.13c0-1.46.15-2.48.45-3.08s.8-.89,1.51-.89,1.2.3,1.5.91.45,1.63.45,3.06-.15,2.47-.45,3.07-.8.89-1.5.89-1.2-.29-1.5-.88-.45-1.62-.45-3.07M209.42,5.35h3.46l-1.73,6.83-1.73-6.83h0ZM206.68.26l3.54,13.05h1.85l3.59-13.05h-1.47l-.98,3.76h-4.11l-.94-3.76h-1.48ZM221.64,3.7h1.33c0-1.17-.27-2.08-.81-2.73-.54-.64-1.3-.97-2.28-.97-1.08,0-1.88.43-2.4,1.28-.52.85-.78,2.16-.78,3.93s.27,2.97.81,3.81,1.36,1.26,2.45,1.26c.91,0,1.62-.28,2.15-.84s.79-1.31.79-2.28v-.2h-1.32c-.03.68-.18,1.2-.44,1.56-.26.36-.64.53-1.12.53-.66,0-1.14-.3-1.42-.88-.29-.59-.43-1.59-.43-3.01s.14-2.45.43-3.04c.29-.6.76-.89,1.43-.89.51,0,.9.21,1.17.64.27.42.42,1.03.44,1.84M224.88.26v9.75h1.26v-1.59c.2.57.49,1.02.89,1.34.39.32.85.48,1.36.48h.35c.08,0,.16,0,.23-.03v-1.46c-.07.04-.15.07-.24.09-.09.02-.18.03-.29.03-.7,0-1.24-.23-1.62-.69-.39-.46-.58-1.11-.58-1.94V.27h-1.36ZM231.03,6.19h3.3v.26c0,.9-.13,1.57-.39,2.03-.26.45-.65.68-1.18.68-.58,0-1.02-.24-1.3-.73s-.43-1.24-.43-2.24M234.34,3.56h1.33c0-1.15-.27-2.03-.79-2.64-.51-.61-1.25-.92-2.2-.92-1.04,0-1.82.41-2.31,1.23-.5.82-.75,2.09-.75,3.8,0,1.82.25,3.15.75,4,.5.84,1.28,1.27,2.35,1.27,1.01,0,1.75-.36,2.25-1.07s.74-1.81.74-3.28v-.85h-4.66v-.44c0-1.22.14-2.11.42-2.67s.73-.84,1.34-.84c.48,0,.85.21,1.13.63s.42.99.42,1.72v.07h-.02Z"/>
        <path class="cls-2" d="M53.35,50.04v-15.29c1.17-.91,2.27-1.9,3.32-2.95,1.28-1.29,2.47-2.67,3.55-4.15.64-.88,1.25-1.79,1.82-2.73v34.91l-.14-.25c-.61-1.05-1.35-2.03-2.16-3.09-.48-.63-.97-1.23-1.47-1.8s-1.03-1.14-1.59-1.7h0c-1.04-1.05-2.15-2.03-3.32-2.95"/>
        <path class="cls-2" d="M0,61.07c.64-1.16,1.34-2.28,2.09-3.35,1.19-1.69,2.52-3.28,3.97-4.73.83-.84,1.71-1.64,2.62-2.39v-16.41c-.91-.75-1.79-1.55-2.62-2.39l-.03-.03c-1.44-1.45-2.76-3.02-3.94-4.7-.75-1.08-1.45-2.2-2.09-3.35v37.35Z"/>
        <path class="cls-1" d="M79.37,21.39v41.56h14.58l5.44-20.23c.49-1.79.93-3.53,1.32-5.21.39-1.69.74-3.32,1.03-4.92.35,1.7.76,3.47,1.21,5.32.45,1.86.97,3.84,1.54,5.97l5.14,19.07h14.55V21.39h-9.66v18.43c0,1.3.03,3.12.1,5.46s.16,5.05.3,8.11l-7.95-32h-10.5l-7.77,32c.13-3.69.23-7,.31-9.95.08-2.94.11-5.24.11-6.9v-15.15s-9.75,0-9.75,0Z"/>
        <path class="cls-1" d="M139.16,44.61h7.03c1.91,0,3.32.4,4.23,1.22.91.82,1.36,2.09,1.36,3.8s-.47,2.9-1.42,3.72-2.38,1.22-4.28,1.22h-6.91v-9.96h0ZM128.53,21.39v41.56h18.93c4.79,0,8.44-1.12,10.95-3.34,2.51-2.23,3.77-5.45,3.77-9.66,0-4.42-1.24-7.81-3.71-10.17s-6.03-3.54-10.67-3.54h-8.63v-14.84h-10.64,0Z"/>
        <path class="cls-1" d="M173.33,37.62h9.05l-4.61,14.33-4.44-14.33ZM172.35,62.95h11.57l14.6-41.56h-11.37l-2.53,7.62h-13.81l-2.37-7.62h-10.97l14.88,41.56h0Z"/>
        <path class="cls-1" d="M235.88,35.95c-.71-4.99-2.67-8.85-5.86-11.6s-7.31-4.12-12.36-4.12c-6.05,0-10.93,1.98-14.63,5.95-3.71,3.97-5.56,9.19-5.56,15.66s1.89,12.11,5.65,16.11c3.78,4.01,8.83,6.01,15.15,6.01,5.01,0,9.12-1.33,12.29-3.98,3.17-2.65,4.98-6.27,5.43-10.87h-9.94c-.49,1.99-1.41,3.5-2.77,4.5-1.35,1.01-3.13,1.51-5.35,1.51-2.95,0-5.3-1.17-7.02-3.52s-2.59-5.57-2.59-9.65.81-7.22,2.44-9.47c1.63-2.24,3.92-3.37,6.88-3.37,2.38,0,4.28.59,5.71,1.75,1.44,1.17,2.33,2.86,2.68,5.08h9.85Z"/>
        <rect class="cls-1" x="27.01" y="21.78" width="7.82" height="7.86"/>
        <path class="cls-1" d="M57.41,55.7c.5.58.98,1.16,1.43,1.74.78,1.02,1.5,1.97,2.08,2.97.46.8.84,1.64,1.11,2.6h-7.83c-.46-.67-.95-1.32-1.46-1.95-.59-.72-1.2-1.39-1.83-2.03-2.57-2.58-5.65-4.67-9.07-6.09-3.29-1.37-6.9-2.13-10.67-2.13s-7.39.76-10.68,2.13c-3.42,1.42-6.5,3.51-9.07,6.09h0c-.64.64-1.25,1.32-1.83,2.03-.51.63-1,1.28-1.46,1.95H0c.77-1.53,1.65-2.99,2.63-4.38,1.15-1.63,2.44-3.17,3.84-4.58,3.22-3.24,7.07-5.85,11.34-7.63,4.11-1.71,8.63-2.66,13.36-2.66s9.25.95,13.36,2.66c4.27,1.78,8.12,4.39,11.34,7.63h0c.52.52,1.04,1.08,1.54,1.65"/>
        <path class="cls-1" d="M57.41,30.79c.5-.49.98-.99,1.43-1.49.78-.88,1.5-1.69,2.08-2.55.46-.69.84-1.41,1.11-2.23h-7.83c-.46.58-.95,1.13-1.46,1.67-.59.61-1.2,1.2-1.83,1.74-2.57,2.22-5.65,4-9.07,5.23-3.29,1.18-6.9,1.82-10.67,1.82s-7.39-.65-10.68-1.82c-3.42-1.22-6.5-3.01-9.07-5.23h0c-.64-.55-1.25-1.13-1.83-1.74-.51-.54-1-1.1-1.46-1.67H0c.77,1.31,1.65,2.56,2.63,3.75,1.15,1.4,2.44,2.72,3.84,3.93,3.22,2.78,7.07,5.02,11.34,6.54,4.11,1.47,8.63,2.28,13.36,2.28s9.25-.81,13.36-2.28c4.27-1.53,8.12-3.76,11.34-6.54h0c.52-.45,1.04-.92,1.54-1.42"/>
      </g>
    </symbol>
  </defs>
  <use width="235.99" height="63.96" transform="translate(47.22 184.01) scale(2.32 -2.32)" xlink:href="#MPAC-H"/>
</svg>