<?xml version="1.0" encoding="UTF-8"?>
<svg id="Camada_1" data-name="Camada 1" xmlns="http://www.w3.org/2000/svg" viewBox="0 0 667.91 349.28">
  <defs>
    <style>
      .cls-1 {
        fill: #fff;
      }
    </style>
  </defs>
  <g>
    <path class="cls-1" d="M129.31,123.54v16.24c0,19.55-9.78,30.73-28.63,30.73s-28.63-11.17-28.63-30.73v-63.55c0-19.55,9.78-30.73,28.63-30.73s28.63,11.17,28.63,30.73v11.87h-18.16v-13.09c0-8.73-3.84-12.05-9.95-12.05s-9.95,3.32-9.95,12.05v65.99c0,8.73,3.84,11.87,9.95,11.87s9.95-3.14,9.95-11.87v-17.46h18.16Z"/>
    <path class="cls-1" d="M203.15,169.11h-19.38l-3.32-22.17h-23.57l-3.32,22.17h-17.63l19.55-122.2h28.11l19.55,122.2ZM159.33,130.35h18.5l-9.25-61.8-9.25,61.8Z"/>
    <path class="cls-1" d="M210.48,76.23c0-19.55,10.3-30.73,29.15-30.73s29.15,11.17,29.15,30.73v63.55c0,19.55-10.3,30.73-29.15,30.73s-29.15-11.17-29.15-30.73v-63.55ZM229.68,141c0,8.73,3.84,12.05,9.95,12.05s9.95-3.32,9.95-12.05v-65.99c0-8.73-3.84-12.05-9.95-12.05s-9.95,3.32-9.95,12.05v65.99Z"/>
    <path class="cls-1" d="M338.1,77.1v15.89c0,19.55-9.43,30.2-28.63,30.2h-9.08v45.91h-19.2V46.9h28.28c19.2,0,28.63,10.65,28.63,30.2ZM300.39,64.36v41.37h9.08c6.11,0,9.43-2.79,9.43-11.52v-18.33c0-8.73-3.32-11.52-9.43-11.52h-9.08Z"/>
    <path class="cls-1" d="M367.07,98.4h26.36v17.46h-26.36v35.79h33.17v17.46h-52.37V46.9h52.37v17.46h-33.17v34.04Z"/>
    <path class="cls-1" d="M412.11,46.9h30.38c19.2,0,28.63,10.65,28.63,30.2v61.8c0,19.55-9.43,30.2-28.63,30.2h-30.38V46.9ZM431.31,64.36v87.29h10.82c6.11,0,9.78-3.14,9.78-11.87v-63.55c0-8.73-3.67-11.87-9.78-11.87h-10.82Z"/>
    <path class="cls-1" d="M501.67,46.9v94.27c0,8.73,3.84,11.87,9.95,11.87s9.95-3.14,9.95-11.87V46.9h18.16v93.05c0,19.55-9.78,30.73-28.63,30.73s-28.63-11.17-28.63-30.73V46.9h19.2Z"/>
    <path class="cls-1" d="M608.51,123.54v16.24c0,19.55-9.78,30.73-28.63,30.73s-28.63-11.17-28.63-30.73v-63.55c0-19.55,9.78-30.73,28.63-30.73s28.63,11.17,28.63,30.73v11.87h-18.16v-13.09c0-8.73-3.84-12.05-9.95-12.05s-9.95,3.32-9.95,12.05v65.99c0,8.73,3.84,11.87,9.95,11.87s9.95-3.14,9.95-11.87v-17.46h18.16Z"/>
  </g>
  <g>
    <path class="cls-1" d="M72.05,229.5v-23.44c0-6.73,3.49-10.72,10.1-10.72s10.1,3.99,10.1,10.72v4.61h-6.48v-5.05c0-2.87-1.37-4.05-3.43-4.05s-3.43,1.18-3.43,4.05v24.37c0,2.87,1.37,3.99,3.43,3.99s3.43-1.12,3.43-3.99v-6.36h6.48v5.86c0,6.73-3.49,10.72-10.1,10.72s-10.1-3.99-10.1-10.72Z"/>
    <path class="cls-1" d="M115.24,217.53v7.6h-12.96v5.36c0,2.8,1.12,3.86,3.3,3.86s3.3-1.06,3.3-3.86v-1.18h6.36v.56c0,6.61-3.43,10.35-9.79,10.35s-9.79-3.74-9.79-10.35v-12.34c0-6.61,3.43-10.35,9.79-10.35s9.79,3.74,9.79,10.35ZM108.76,219.9v-2.99c0-2.81-1.18-3.87-3.24-3.87s-3.24,1.06-3.24,3.87v2.99h6.48Z"/>
    <path class="cls-1" d="M138.92,216.47v23.12h-6.61v-22.38c0-2.74-.75-4.18-2.74-4.18-1.87,0-3.37,1.31-3.37,5.11v21.44h-6.61v-31.79h5.73l.12,3.68c1.12-2.74,3.43-4.3,6.36-4.3,4.43,0,7.11,2.74,7.11,9.29Z"/>
    <path class="cls-1" d="M152.26,213.41v18.2c0,1.99.69,2.74,2.56,2.74.69,0,1.43-.12,2.24-.37v5.61c-1.12.44-2.24.62-3.62.62-5.24,0-7.79-2.56-7.79-7.73v-19.07h-3.62v-5.61h3.93l.62-8.6h5.67v8.6h4.8v5.61h-4.8Z"/>
    <path class="cls-1" d="M174.64,207.56v6.42c-.5-.12-1.12-.19-1.68-.19-3.68,0-5.61,2.56-5.61,7.48v18.33h-6.61v-31.79h5.73l.12,5.36c.87-3.99,2.93-5.98,6.17-5.98.81,0,1.37.12,1.87.37Z"/>
    <path class="cls-1" d="M176.94,229.87v-12.34c0-6.61,3.49-10.35,9.72-10.35s9.72,3.74,9.72,10.35v12.34c0,6.61-3.49,10.35-9.72,10.35s-9.72-3.74-9.72-10.35ZM189.78,230.49v-13.59c0-2.18-.69-3.87-3.12-3.87s-3.12,1.68-3.12,3.87v13.59c0,2.24.75,3.86,3.12,3.86s3.12-1.62,3.12-3.86Z"/>
    <path class="cls-1" d="M224.56,239.59c-.19-.37-.44-1.75-.56-3.74-1.12,2.74-3.49,4.36-6.42,4.36-4.36,0-7.17-2.74-7.17-9.29v-14.46c0-6.54,2.81-9.29,7.17-9.29,2.37,0,4.36,1.06,5.67,2.93v-14.15h6.61v34.47c0,4.49.31,7.36.75,9.16h-6.05ZM223.25,229.25v-11.1c0-3.74-1.56-5.11-3.43-5.11-2.18,0-2.8,1.68-2.8,3.87v13.59c0,2.18.62,3.86,2.8,3.86,1.87,0,3.43-1.37,3.43-5.11Z"/>
    <path class="cls-1" d="M253.92,217.53v7.6h-12.96v5.36c0,2.8,1.12,3.86,3.3,3.86s3.3-1.06,3.3-3.86v-1.18h6.36v.56c0,6.61-3.43,10.35-9.79,10.35s-9.79-3.74-9.79-10.35v-12.34c0-6.61,3.43-10.35,9.79-10.35s9.79,3.74,9.79,10.35ZM247.44,219.9v-2.99c0-2.81-1.18-3.87-3.24-3.87s-3.24,1.06-3.24,3.87v2.99h6.48Z"/>
    <path class="cls-1" d="M281.84,231.06h-7.92l-1.18,8.54h-6.36l7.11-43.63h9.29l7.11,43.63h-6.86l-1.18-8.54ZM280.97,225.13l-3.12-22-3.05,22h6.17Z"/>
    <path class="cls-1" d="M312.57,216.47v14.46c0,6.54-2.81,9.29-7.23,9.29-2.37,0-4.3-1.06-5.61-2.93v11.97h-6.61v-41.45h5.73l.12,3.74c1.12-2.74,3.49-4.36,6.36-4.36,4.43,0,7.23,2.74,7.23,9.29ZM305.96,216.91c0-2.18-.62-3.87-2.8-3.87-1.87,0-3.43,1.37-3.43,5.11v11.1c0,3.74,1.56,5.11,3.43,5.11,2.18,0,2.8-1.68,2.8-3.86v-13.59Z"/>
    <path class="cls-1" d="M316.62,229.87v-12.34c0-6.61,3.49-10.35,9.72-10.35s9.72,3.74,9.72,10.35v12.34c0,6.61-3.49,10.35-9.72,10.35s-9.72-3.74-9.72-10.35ZM329.46,230.49v-13.59c0-2.18-.69-3.87-3.12-3.87s-3.12,1.68-3.12,3.87v13.59c0,2.24.75,3.86,3.12,3.86s3.12-1.62,3.12-3.86Z"/>
    <path class="cls-1" d="M340.55,196.65h6.61v7.23h-6.61v-7.23ZM340.55,207.81h6.61v31.79h-6.61v-31.79Z"/>
    <path class="cls-1" d="M351.64,229.87v-12.34c0-6.61,3.49-10.35,9.72-10.35s9.72,3.74,9.72,10.35v12.34c0,6.61-3.49,10.35-9.72,10.35s-9.72-3.74-9.72-10.35ZM364.48,230.49v-13.59c0-2.18-.69-3.87-3.12-3.87s-3.12,1.68-3.12,3.87v13.59c0,2.24.75,3.86,3.12,3.86s3.12-1.62,3.12-3.86Z"/>
    <path class="cls-1" d="M385.05,229.25v-22.94c0-6.98,3.68-10.97,10.41-10.97s10.41,3.99,10.41,10.97v22.94c0,6.98-3.68,10.97-10.41,10.97s-10.41-3.99-10.41-10.97ZM399.01,229.68v-23.81c0-3.12-1.37-4.3-3.55-4.3s-3.55,1.18-3.55,4.3v23.81c0,3.12,1.37,4.3,3.55,4.3s3.55-1.18,3.55-4.3Z"/>
    <path class="cls-1" d="M429.93,216.47v14.46c0,6.54-2.81,9.29-7.23,9.29-2.37,0-4.3-1.06-5.61-2.93v11.97h-6.61v-41.45h5.73l.12,3.74c1.12-2.74,3.49-4.36,6.36-4.36,4.42,0,7.23,2.74,7.23,9.29ZM423.32,216.91c0-2.18-.62-3.87-2.8-3.87-1.87,0-3.43,1.37-3.43,5.11v11.1c0,3.74,1.56,5.11,3.43,5.11,2.18,0,2.8-1.68,2.8-3.86v-13.59Z"/>
    <path class="cls-1" d="M453.55,217.53v7.6h-12.97v5.36c0,2.8,1.12,3.86,3.3,3.86s3.3-1.06,3.3-3.86v-1.18h6.36v.56c0,6.61-3.43,10.35-9.79,10.35s-9.79-3.74-9.79-10.35v-12.34c0-6.61,3.43-10.35,9.79-10.35s9.79,3.74,9.79,10.35ZM447.07,219.9v-2.99c0-2.81-1.18-3.87-3.24-3.87s-3.24,1.06-3.24,3.87v2.99h6.48Z"/>
    <path class="cls-1" d="M471.81,207.56v6.42c-.5-.12-1.12-.19-1.68-.19-3.68,0-5.61,2.56-5.61,7.48v18.33h-6.61v-31.79h5.73l.12,5.36c.87-3.99,2.93-5.98,6.17-5.98.81,0,1.37.12,1.87.37Z"/>
    <path class="cls-1" d="M487.33,239.59c-.19-.37-.44-1.75-.5-3.74-1.18,2.81-3.55,4.36-6.73,4.36-4.24,0-6.92-3.05-6.92-7.98s2.06-7.85,7.67-10.6c4.55-2.24,5.17-2.81,5.17-4.55v-.62c0-2.56-.81-3.62-2.68-3.62-2.06,0-2.99,1.31-2.99,3.68v1.18h-6.23v-.81c0-6.17,3.18-9.72,9.29-9.72,6.61,0,9.23,3.49,9.23,10.47v12.78c0,4.49.31,7.36.75,9.16h-6.05ZM486.02,229.25v-5.42c-.5.62-1.5,1.25-3.24,2.37-1.99,1.25-2.99,2.87-2.99,4.92,0,2.24.94,3.43,2.81,3.43,2.24,0,3.43-1.81,3.43-5.3Z"/>
    <path class="cls-1" d="M497.05,230v-12.59c0-6.48,3.37-10.22,9.66-10.22s9.41,3.99,9.41,10.22v1.93h-6.36v-2.56c0-2.37-.81-3.74-3.05-3.74s-3.05,1.37-3.05,3.74v13.84c0,2.37.81,3.74,3.05,3.74s3.05-1.37,3.05-3.74v-3.18h6.36v2.55c0,6.23-3.05,10.22-9.41,10.22s-9.66-3.74-9.66-10.22Z"/>
    <path class="cls-1" d="M520.24,196.65h6.61v7.23h-6.61v-7.23ZM520.24,207.81h6.61v31.79h-6.61v-31.79Z"/>
    <path class="cls-1" d="M531.33,229.87v-12.34c0-6.61,3.49-10.35,9.72-10.35s9.72,3.74,9.72,10.35v12.34c0,6.61-3.49,10.35-9.72,10.35s-9.72-3.74-9.72-10.35ZM544.17,230.49v-13.59c0-2.18-.69-3.87-3.12-3.87s-3.12,1.68-3.12,3.87v13.59c0,2.24.75,3.86,3.12,3.86s3.12-1.62,3.12-3.86Z"/>
    <path class="cls-1" d="M574.59,216.47v23.12h-6.61v-22.38c0-2.74-.75-4.18-2.74-4.18-1.87,0-3.37,1.31-3.37,5.11v21.44h-6.61v-31.79h5.73l.12,3.68c1.12-2.74,3.43-4.3,6.36-4.3,4.43,0,7.11,2.74,7.11,9.29Z"/>
    <path class="cls-1" d="M592.35,239.59c-.19-.37-.44-1.75-.5-3.74-1.18,2.81-3.55,4.36-6.73,4.36-4.24,0-6.92-3.05-6.92-7.98s2.06-7.85,7.67-10.6c4.55-2.24,5.17-2.81,5.17-4.55v-.62c0-2.56-.81-3.62-2.68-3.62-2.06,0-2.99,1.31-2.99,3.68v1.18h-6.23v-.81c0-6.17,3.18-9.72,9.29-9.72,6.61,0,9.23,3.49,9.23,10.47v12.78c0,4.49.31,7.36.75,9.16h-6.05ZM591.04,229.25v-5.42c-.5.62-1.5,1.25-3.24,2.37-1.99,1.25-2.99,2.87-2.99,4.92,0,2.24.94,3.43,2.81,3.43,2.24,0,3.43-1.81,3.43-5.3Z"/>
    <path class="cls-1" d="M602.7,195.96h6.61v43.63h-6.61v-43.63Z"/>
    <path class="cls-1" d="M86.26,314.39c-.19-.37-.44-1.75-.56-3.74-1.12,2.74-3.49,4.36-6.42,4.36-4.36,0-7.17-2.74-7.17-9.29v-14.46c0-6.54,2.81-9.29,7.17-9.29,2.37,0,4.36,1.06,5.67,2.93v-14.15h6.61v34.47c0,4.49.31,7.36.75,9.16h-6.05ZM84.95,304.04v-11.1c0-3.74-1.56-5.11-3.43-5.11-2.18,0-2.8,1.68-2.8,3.87v13.59c0,2.18.62,3.86,2.8,3.86,1.87,0,3.43-1.37,3.43-5.11Z"/>
    <path class="cls-1" d="M115.61,292.32v7.6h-12.96v5.36c0,2.8,1.12,3.86,3.3,3.86s3.3-1.06,3.3-3.86v-1.18h6.36v.56c0,6.61-3.43,10.35-9.79,10.35s-9.79-3.74-9.79-10.35v-12.34c0-6.61,3.43-10.35,9.79-10.35s9.79,3.74,9.79,10.35ZM109.13,294.69v-2.99c0-2.81-1.18-3.87-3.24-3.87s-3.24,1.06-3.24,3.87v2.99h6.48Z"/>
    <path class="cls-1" d="M129.95,270.76h10.47c6.86,0,10.22,3.8,10.22,10.78v22.07c0,6.98-3.37,10.78-10.22,10.78h-10.47v-43.63ZM140.29,308.16c2.18,0,3.49-1.12,3.49-4.24v-22.69c0-3.12-1.31-4.24-3.49-4.24h-3.49v31.17h3.49Z"/>
    <path class="cls-1" d="M174.51,292.32v7.6h-12.96v5.36c0,2.8,1.12,3.86,3.3,3.86s3.3-1.06,3.3-3.86v-1.18h6.36v.56c0,6.61-3.43,10.35-9.79,10.35s-9.79-3.74-9.79-10.35v-12.34c0-6.61,3.43-10.35,9.79-10.35s9.79,3.74,9.79,10.35ZM168.03,294.69v-2.99c0-2.81-1.18-3.87-3.24-3.87s-3.24,1.06-3.24,3.87v2.99h6.48Z"/>
    <path class="cls-1" d="M187.35,278.73v3.87h4.8v5.61h-4.8v26.18h-6.61v-26.18h-3.62v-5.61h3.62v-4.74c0-5.17,2.56-7.73,7.79-7.73,1.37,0,2.49.19,3.62.62v5.61c-.81-.25-1.56-.37-2.24-.37-1.87,0-2.56.75-2.56,2.74Z"/>
    <path class="cls-1" d="M214.21,292.32v7.6h-12.96v5.36c0,2.8,1.12,3.86,3.3,3.86s3.3-1.06,3.3-3.86v-1.18h6.36v.56c0,6.61-3.43,10.35-9.79,10.35s-9.79-3.74-9.79-10.35v-12.34c0-6.61,3.43-10.35,9.79-10.35s9.79,3.74,9.79,10.35ZM207.73,294.69v-2.99c0-2.81-1.18-3.87-3.24-3.87s-3.24,1.06-3.24,3.87v2.99h6.48Z"/>
    <path class="cls-1" d="M217.33,305.29v-1h6.36v1.18c0,2.87,1.25,3.86,2.93,3.86s2.87-.93,2.87-3.43-2.12-3.62-4.61-5.05c-3.37-1.93-7.23-4.11-7.23-10.1,0-5.3,3.05-8.79,8.91-8.79,5.42,0,8.91,3.49,8.91,9.29v.69h-6.23v-.87c0-2.56-1-3.43-2.62-3.43-1.37,0-2.56.81-2.56,2.99,0,2.62,2.24,3.99,4.86,5.42,3.37,1.87,7.11,4.05,7.11,9.72s-3.05,9.22-9.1,9.22-9.6-3.62-9.6-9.72Z"/>
    <path class="cls-1" d="M252.73,314.39c-.19-.37-.44-1.75-.5-3.74-1.18,2.81-3.55,4.36-6.73,4.36-4.24,0-6.92-3.05-6.92-7.98s2.06-7.85,7.67-10.6c4.55-2.24,5.17-2.8,5.17-4.55v-.62c0-2.56-.81-3.62-2.68-3.62-2.06,0-2.99,1.31-2.99,3.68v1.18h-6.23v-.81c0-6.17,3.18-9.72,9.29-9.72,6.61,0,9.23,3.49,9.23,10.47v12.78c0,4.49.31,7.36.75,9.16h-6.05ZM251.42,304.04v-5.42c-.5.62-1.5,1.25-3.24,2.37-1.99,1.25-2.99,2.87-2.99,4.92,0,2.24.94,3.43,2.8,3.43,2.24,0,3.43-1.81,3.43-5.3Z"/>
    <path class="cls-1" d="M286.76,314.39c-.19-.37-.44-1.75-.56-3.74-1.12,2.74-3.49,4.36-6.42,4.36-4.36,0-7.17-2.74-7.17-9.29v-14.46c0-6.54,2.81-9.29,7.17-9.29,2.37,0,4.36,1.06,5.67,2.93v-14.15h6.61v34.47c0,4.49.31,7.36.75,9.16h-6.05ZM285.45,304.04v-11.1c0-3.74-1.56-5.11-3.43-5.11-2.18,0-2.8,1.68-2.8,3.87v13.59c0,2.18.62,3.86,2.8,3.86,1.87,0,3.43-1.37,3.43-5.11Z"/>
    <path class="cls-1" d="M310.01,314.39c-.19-.37-.44-1.75-.5-3.74-1.18,2.81-3.55,4.36-6.73,4.36-4.24,0-6.92-3.05-6.92-7.98s2.06-7.85,7.67-10.6c4.55-2.24,5.17-2.8,5.17-4.55v-.62c0-2.56-.81-3.62-2.68-3.62-2.06,0-2.99,1.31-2.99,3.68v1.18h-6.23v-.81c0-6.17,3.18-9.72,9.29-9.72,6.61,0,9.23,3.49,9.23,10.47v12.78c0,4.49.31,7.36.75,9.16h-6.05ZM308.7,304.04v-5.42c-.5.62-1.5,1.25-3.24,2.37-1.99,1.25-2.99,2.87-2.99,4.92,0,2.24.94,3.43,2.8,3.43,2.24,0,3.43-1.81,3.43-5.3Z"/>
    <path class="cls-1" d="M330.33,270.76h18.7v6.23h-11.84v11.53h9.41v6.23h-9.41v13.4h11.84v6.23h-18.7v-43.63Z"/>
    <path class="cls-1" d="M366.42,314.39c-.19-.37-.44-1.75-.56-3.74-1.12,2.74-3.49,4.36-6.42,4.36-4.36,0-7.17-2.74-7.17-9.29v-14.46c0-6.54,2.81-9.29,7.17-9.29,2.37,0,4.36,1.06,5.67,2.93v-14.15h6.61v34.47c0,4.49.31,7.36.75,9.16h-6.05ZM365.11,304.04v-11.1c0-3.74-1.56-5.11-3.43-5.11-2.18,0-2.8,1.68-2.8,3.87v13.59c0,2.18.62,3.86,2.8,3.86,1.87,0,3.43-1.37,3.43-5.11Z"/>
    <path class="cls-1" d="M395.96,282.6v31.79h-5.73l-.12-3.68c-1.12,2.74-3.43,4.3-6.36,4.3-4.43,0-7.11-2.74-7.11-9.29v-23.12h6.61v22.38c0,2.74.75,4.18,2.74,4.18,1.87,0,3.37-1.31,3.37-5.11v-21.44h6.61Z"/>
    <path class="cls-1" d="M400.45,304.79v-12.59c0-6.48,3.37-10.22,9.66-10.22s9.41,3.99,9.41,10.22v1.93h-6.36v-2.56c0-2.37-.81-3.74-3.05-3.74s-3.05,1.37-3.05,3.74v13.84c0,2.37.81,3.74,3.05,3.74s3.05-1.37,3.05-3.74v-3.18h6.36v2.55c0,6.23-3.05,10.22-9.41,10.22s-9.66-3.74-9.66-10.22Z"/>
    <path class="cls-1" d="M436.47,314.39c-.19-.37-.44-1.75-.5-3.74-1.18,2.81-3.55,4.36-6.73,4.36-4.24,0-6.92-3.05-6.92-7.98s2.06-7.85,7.67-10.6c4.55-2.24,5.17-2.8,5.17-4.55v-.62c0-2.56-.81-3.62-2.68-3.62-2.06,0-2.99,1.31-2.99,3.68v1.18h-6.23v-.81c0-6.17,3.18-9.72,9.29-9.72,6.61,0,9.22,3.49,9.22,10.47v12.78c0,4.49.31,7.36.75,9.16h-6.05ZM435.16,304.04v-5.42c-.5.62-1.5,1.25-3.24,2.37-1.99,1.25-2.99,2.87-2.99,4.92,0,2.24.93,3.43,2.8,3.43,2.24,0,3.43-1.81,3.43-5.3Z"/>
    <path class="cls-1" d="M458.91,294.13v-2.56c0-2.37-.81-3.74-3.05-3.74s-3.05,1.37-3.05,3.74v13.84c0,2.37.81,3.74,3.05,3.74s3.05-1.37,3.05-3.74v-3.18h6.36v2.55c0,5.67-2.56,9.54-7.85,10.16v1.87c2.74,0,4.3.75,4.3,3.18,0,3.62-2.62,4.05-6.36,4.05-3.43,0-5.98-.75-5.98-3.86v-.62h4.61v.5c0,1.18.69,1.5,1.37,1.5,1.12,0,1.62-.44,1.62-1.75,0-1.43-.75-1.87-2.31-1.87h-.31v-2.99c-5.36-.56-8.17-4.24-8.17-10.16v-12.59c0-6.48,3.37-10.22,9.66-10.22s9.41,3.99,9.41,10.22v1.93h-6.36Z"/>
    <path class="cls-1" d="M482.22,314.39c-.19-.37-.44-1.75-.5-3.74-1.18,2.81-3.55,4.36-6.73,4.36-4.24,0-6.92-3.05-6.92-7.98s2.06-7.85,7.67-10.6c4.55-2.24,5.17-2.8,5.17-4.55v-.62c0-2.56-.81-3.62-2.68-3.62-2.06,0-2.99,1.31-2.99,3.68v1.18h-6.23v-.81c0-6.17,3.18-9.72,9.29-9.72,6.61,0,9.23,3.49,9.23,10.47v12.78c0,4.49.31,7.36.75,9.16h-6.05ZM473.12,278.73l-3.37-1.99c1.56-3.49,3.3-5.24,5.67-5.24,1.43,0,2.43.69,3.37,1.37.69.5,1.31.94,2,.94.81,0,1.5-.69,2.31-2.43l3.37,1.99c-1.56,3.49-3.3,5.24-5.67,5.24-1.43,0-2.43-.69-3.37-1.37-.69-.5-1.31-.93-2-.93-1,0-1.75,1.12-2.31,2.43ZM480.91,304.04v-5.42c-.5.62-1.5,1.25-3.24,2.37-1.99,1.25-2.99,2.87-2.99,4.92,0,2.24.94,3.43,2.81,3.43,2.24,0,3.43-1.81,3.43-5.3Z"/>
    <path class="cls-1" d="M491.94,304.66v-12.34c0-6.61,3.49-10.35,9.72-10.35s9.72,3.74,9.72,10.35v12.34c0,6.61-3.49,10.35-9.72,10.35s-9.72-3.74-9.72-10.35ZM504.78,305.29v-13.59c0-2.18-.69-3.87-3.12-3.87s-3.12,1.68-3.12,3.87v13.59c0,2.24.75,3.86,3.12,3.86s3.12-1.62,3.12-3.86Z"/>
  </g>
</svg>